<?xml version="1.0" standalone="no"?>
<!DOCTYPE svg PUBLIC "-//W3C//DTD SVG 20010904//EN"
 "http://www.w3.org/TR/2001/REC-SVG-20010904/DTD/svg10.dtd">
<svg version="1.0" xmlns="http://www.w3.org/2000/svg"
 width="260.000000pt" height="260.000000pt" viewBox="0 0 260.000000 260.000000"
 preserveAspectRatio="xMidYMid meet">
<metadata>
Created by potrace 1.11, written by Peter Selinger 2001-2013
</metadata>
<g transform="translate(0.000000,260.000000) scale(0.100000,-0.100000)"
fill="#000000" stroke="none">
<path d="M1209 2506 c-2 -2 -31 -7 -64 -11 -216 -24 -441 -105 -620 -223 -86
-56 -237 -205 -294 -289 -86 -128 -154 -294 -181 -441 -6 -34 -14 -74 -17 -89
-8 -41 -8 -320 1 -376 57 -394 248 -682 559 -846 93 -49 246 -102 337 -117 14
-3 47 -9 75 -15 130 -26 467 -29 617 -4 13 2 41 6 63 10 133 19 224 39 363 81
l82 25 0 629 0 630 -447 -2 -446 -3 -1 -208 c-1 -131 3 -207 9 -208 6 0 89 -2
185 -2 l175 -2 1 -248 0 -249 -23 -9 c-43 -16 -77 -20 -198 -24 -232 -7 -398
45 -544 168 -127 108 -211 265 -240 452 -10 62 -8 287 3 340 57 281 239 480
506 555 213 59 555 39 769 -45 l58 -22 19 71 c10 39 19 76 20 81 2 9 60 231
70 267 4 12 -8 21 -49 37 -83 30 -183 55 -272 66 -22 3 -51 8 -65 11 -28 7
-444 16 -451 10z"/>
<path d="M2271 2318 c-109 -31 -189 -147 -179 -262 5 -63 29 -114 75 -159 54
-55 97 -72 178 -72 81 1 125 18 178 72 54 53 72 97 72 178 0 58 -5 79 -29 122
-58 105 -179 155 -295 121z"/>
</g>
</svg>
